snake_rectilinear_motion_3_ik.mot			
version=1			
nRows=33	
nColumns=4			
inDegrees=yes			
			
Units are S.I. units (second, meters, Newtons, ...)
Angles are in degrees.
			
endheader			
time	rib1_tx	rib2_tx	rib3_tx
0.000	0.001	0.000	0.000
0.010	0.002	0.000	0.000
0.020	0.003	0.000	0.000
0.030	0.004	0.000	0.000
0.040	0.005	0.000	0.000
0.050	0.006	0.000	0.000
0.060	0.007	0.000	0.000
0.070	0.008	0.000	0.000
0.080	0.009	0.000	0.000
0.090	0.010	0.000	0.000
0.100	0.011	0.000	0.000
0.110	0.000	0.001	0.000
0.120	0.000	0.002	0.000
0.130	0.000	0.003	0.000
0.140	0.000	0.004	0.000
0.150	0.000	0.005	0.000
0.160	0.000	0.006	0.000
0.170	0.000	0.007	0.000
0.180	0.000	0.008	0.000
0.190	0.000	0.009	0.000
0.200	0.000	0.010	0.000
0.210	0.000	0.011	0.000
0.220	0.000	0.000	0.001
0.230	0.000	0.000	0.002
0.240	0.000	0.000	0.003
0.250	0.000	0.000	0.004
0.260	0.000	0.000	0.005
0.270	0.000	0.000	0.006
0.280	0.000	0.000	0.007
0.290	0.000	0.000	0.008
0.300	0.000	0.000	0.009
0.310	0.000	0.000	0.010
0.320	0.000	0.000	0.011
